# xmcd CD database file
#
# Track frame offsets:
#	150
#	21885
#	53224
#	69665
#	89046
#	113187
#	129096
#	153157
#	177206
#	190287
#
# Disc length: 2922 seconds
#
# Revision: 0
# Processed by: cddbd v1.5.1PL2 Copyright (c) Steve Scherf et al.
# Submitted via: CDex 1.50
#
DISCID=820b680a
DTITLE=Michael Cheret - Serious Things
DYEAR=1900
DGENRE=Jazz
TTITLE0=The Dude
TTITLE1=B Flat mood - morceau yaourt
TTITLE2=Serious Things
TTITLE3=First Two Three
TTITLE4=La Papatte du Lion
TTITLE5=Ton Gourou est Ta Mere
TTITLE6=S'gone Fly
TTITLE7=Jazz Kando
TTITLE8=Bouche de Mouche
TTITLE9=La Piu Bella del Mondo
EXTD=
EXTT0=
EXTT1=
EXTT2=
EXTT3=
EXTT4=
EXTT5=
EXTT6=
EXTT7=
EXTT8=
EXTT9=
PLAYORDER=
